# xmcd
#
# Track frame offsets:
#	182
#	11327
#	37140
#	59452
#	84765
#	115600
#	132042
#	147745
#	163137
#	184215
#	204202
#	216657
#	233750
#	248330
#	263905
#
# Disc length: 3750 seconds
#
# Revision: 0
# Processed by: cddbd v1.4PL0 Copyright (c) Steve Scherf et al.
# Submitted via: EasyCDDAExtractor 4.5.2.1
#
DISCID=cf0ea40f
DTITLE=Jimmy Witherspoon - Jazz and Blues Collection - CD 81 
DYEAR=1900
DGENRE=Blues
TTITLE0=Good Rockin' Tonight
TTITLE1=When I Been Drinkin'
TTITLE2=Big Fine Girl
TTITLE3=No Rollin' Blues
TTITLE4=Ain't Nobody's Business
TTITLE5=Times Gettin' Tougher Than Tough
TTITLE6=How Long
TTITLE7=Corrine, Corrina
TTITLE8=See See Rider
TTITLE9=Roll'Em Pete
TTITLE10=Everyday
TTITLE11=I'm Gonna Move To The Outskirts Of Town
TTITLE12=Kansas City
TTITLE13=Trouble In Mind
TTITLE14=St. Louis Blues
EXTD=
EXTT0=
EXTT1=
EXTT2=
EXTT3=
EXTT4=
EXTT5=
EXTT6=
EXTT7=
EXTT8=
EXTT9=
EXTT10=
EXTT11=
EXTT12=
EXTT13=
EXTT14=
PLAYORDER=
